<mxfile host="app.diagrams.net" modified="2020-08-06T00:43:08.783Z" agent="5.0 (Macintosh; Intel Mac OS X 10_15_6) AppleWebKit/605.1.15 (KHTML, like Gecko) Version/13.1.2 Safari/605.1.15" etag="pbPccebzKifR9W8UGNkb" version="13.6.0" type="github">
  <diagram id="C5RBs43oDa-KdzZeNtuy" name="Page-1">
    <mxGraphModel dx="828" dy="507" grid="1" gridSize="10" guides="1" tooltips="1" connect="1" arrows="1" fold="1" page="1" pageScale="1" pageWidth="827" pageHeight="1169" math="0" shadow="0">
      <root>
        <mxCell id="WIyWlLk6GJQsqaUBKTNV-0" />
        <mxCell id="WIyWlLk6GJQsqaUBKTNV-1" parent="WIyWlLk6GJQsqaUBKTNV-0" />
        <mxCell id="GmxHw5m7cE2T_aC2auER-4" value="Opportunity Owner" style="swimlane;fontStyle=0;align=center;verticalAlign=top;childLayout=stackLayout;horizontal=1;startSize=26;horizontalStack=0;resizeParent=1;resizeParentMax=0;resizeLast=0;collapsible=1;marginBottom=0;" parent="WIyWlLk6GJQsqaUBKTNV-1" vertex="1">
          <mxGeometry x="10" y="20" width="170" height="88" as="geometry" />
        </mxCell>
        <mxCell id="GmxHw5m7cE2T_aC2auER-5" value="- id: string&#xa;- matricula: int&#xa;- email: string" style="text;strokeColor=none;fillColor=none;align=left;verticalAlign=top;spacingLeft=4;spacingRight=4;overflow=hidden;rotatable=0;points=[[0,0.5],[1,0.5]];portConstraint=eastwest;" parent="GmxHw5m7cE2T_aC2auER-4" vertex="1">
          <mxGeometry y="26" width="170" height="54" as="geometry" />
        </mxCell>
        <mxCell id="GmxHw5m7cE2T_aC2auER-6" value="" style="line;strokeWidth=1;fillColor=none;align=left;verticalAlign=middle;spacingTop=-1;spacingLeft=3;spacingRight=3;rotatable=0;labelPosition=right;points=[];portConstraint=eastwest;" parent="GmxHw5m7cE2T_aC2auER-4" vertex="1">
          <mxGeometry y="80" width="170" height="8" as="geometry" />
        </mxCell>
        <mxCell id="GmxHw5m7cE2T_aC2auER-9" value="DB1" style="swimlane;fontStyle=1;align=center;verticalAlign=top;childLayout=stackLayout;horizontal=1;startSize=26;horizontalStack=0;resizeParent=1;resizeParentMax=0;resizeLast=0;collapsible=1;marginBottom=0;" parent="WIyWlLk6GJQsqaUBKTNV-1" vertex="1">
          <mxGeometry x="637" y="20" width="190" height="164" as="geometry" />
        </mxCell>
        <mxCell id="GmxHw5m7cE2T_aC2auER-10" value=" customer#: int&#xa;- customer_name: string&#xa;- tcv: float&#xa;- service line: string&#xa;- growth: sting&#xa;- team: string" style="text;strokeColor=none;fillColor=none;align=left;verticalAlign=top;spacingLeft=4;spacingRight=4;overflow=hidden;rotatable=0;points=[[0,0.5],[1,0.5]];portConstraint=eastwest;" parent="GmxHw5m7cE2T_aC2auER-9" vertex="1">
          <mxGeometry y="26" width="190" height="104" as="geometry" />
        </mxCell>
        <mxCell id="GmxHw5m7cE2T_aC2auER-11" value="" style="line;strokeWidth=1;fillColor=none;align=left;verticalAlign=middle;spacingTop=-1;spacingLeft=3;spacingRight=3;rotatable=0;labelPosition=right;points=[];portConstraint=eastwest;" parent="GmxHw5m7cE2T_aC2auER-9" vertex="1">
          <mxGeometry y="130" width="190" height="8" as="geometry" />
        </mxCell>
        <mxCell id="GmxHw5m7cE2T_aC2auER-12" value="- Resumo: string" style="text;strokeColor=none;fillColor=none;align=left;verticalAlign=top;spacingLeft=4;spacingRight=4;overflow=hidden;rotatable=0;points=[[0,0.5],[1,0.5]];portConstraint=eastwest;" parent="GmxHw5m7cE2T_aC2auER-9" vertex="1">
          <mxGeometry y="138" width="190" height="26" as="geometry" />
        </mxCell>
        <mxCell id="GmxHw5m7cE2T_aC2auER-13" value="Opportunity" style="swimlane;fontStyle=1;align=center;verticalAlign=top;childLayout=stackLayout;horizontal=1;startSize=26;horizontalStack=0;resizeParent=1;resizeParentMax=0;resizeLast=0;collapsible=1;marginBottom=0;" parent="WIyWlLk6GJQsqaUBKTNV-1" vertex="1">
          <mxGeometry x="310" y="20" width="180" height="164" as="geometry" />
        </mxCell>
        <mxCell id="GmxHw5m7cE2T_aC2auER-14" value="- customer#: int&#xa;- customer_name: string&#xa;- tcv: float&#xa;- service line: string&#xa;- growth: sting&#xa;- team: string&#xa;&#xa;&#xa;&#xa;&#xa;" style="text;strokeColor=none;fillColor=none;align=left;verticalAlign=top;spacingLeft=4;spacingRight=4;overflow=hidden;rotatable=0;points=[[0,0.5],[1,0.5]];portConstraint=eastwest;" parent="GmxHw5m7cE2T_aC2auER-13" vertex="1">
          <mxGeometry y="26" width="180" height="104" as="geometry" />
        </mxCell>
        <mxCell id="GmxHw5m7cE2T_aC2auER-15" value="" style="line;strokeWidth=1;fillColor=none;align=left;verticalAlign=middle;spacingTop=-1;spacingLeft=3;spacingRight=3;rotatable=0;labelPosition=right;points=[];portConstraint=eastwest;" parent="GmxHw5m7cE2T_aC2auER-13" vertex="1">
          <mxGeometry y="130" width="180" height="8" as="geometry" />
        </mxCell>
        <mxCell id="GmxHw5m7cE2T_aC2auER-16" value="- opportunity number: string" style="text;strokeColor=none;fillColor=none;align=left;verticalAlign=top;spacingLeft=4;spacingRight=4;overflow=hidden;rotatable=0;points=[[0,0.5],[1,0.5]];portConstraint=eastwest;" parent="GmxHw5m7cE2T_aC2auER-13" vertex="1">
          <mxGeometry y="138" width="180" height="26" as="geometry" />
        </mxCell>
        <mxCell id="GmxHw5m7cE2T_aC2auER-18" style="edgeStyle=orthogonalEdgeStyle;rounded=0;orthogonalLoop=1;jettySize=auto;html=1;entryX=-0.017;entryY=0.26;entryDx=0;entryDy=0;entryPerimeter=0;" parent="WIyWlLk6GJQsqaUBKTNV-1" source="GmxHw5m7cE2T_aC2auER-5" target="GmxHw5m7cE2T_aC2auER-14" edge="1">
          <mxGeometry relative="1" as="geometry">
            <mxPoint x="300" y="73" as="targetPoint" />
          </mxGeometry>
        </mxCell>
        <mxCell id="GmxHw5m7cE2T_aC2auER-19" value="Criar" style="edgeLabel;html=1;align=center;verticalAlign=middle;resizable=0;points=[];" parent="GmxHw5m7cE2T_aC2auER-18" vertex="1" connectable="0">
          <mxGeometry x="-0.0667" y="3" relative="1" as="geometry">
            <mxPoint as="offset" />
          </mxGeometry>
        </mxCell>
        <mxCell id="GmxHw5m7cE2T_aC2auER-27" style="edgeStyle=orthogonalEdgeStyle;rounded=0;orthogonalLoop=1;jettySize=auto;html=1;entryX=0;entryY=0.5;entryDx=0;entryDy=0;" parent="WIyWlLk6GJQsqaUBKTNV-1" source="GmxHw5m7cE2T_aC2auER-14" target="GmxHw5m7cE2T_aC2auER-10" edge="1">
          <mxGeometry relative="1" as="geometry" />
        </mxCell>
        <mxCell id="GmxHw5m7cE2T_aC2auER-28" value="Pedir" style="edgeLabel;html=1;align=center;verticalAlign=middle;resizable=0;points=[];" parent="GmxHw5m7cE2T_aC2auER-27" vertex="1" connectable="0">
          <mxGeometry x="0.0884" y="2" relative="1" as="geometry">
            <mxPoint as="offset" />
          </mxGeometry>
        </mxCell>
        <mxCell id="GmxHw5m7cE2T_aC2auER-29" value="validar" style="edgeStyle=orthogonalEdgeStyle;rounded=0;orthogonalLoop=1;jettySize=auto;html=1;" parent="WIyWlLk6GJQsqaUBKTNV-1" source="GmxHw5m7cE2T_aC2auER-23" edge="1">
          <mxGeometry relative="1" as="geometry">
            <mxPoint x="725" y="190" as="targetPoint" />
          </mxGeometry>
        </mxCell>
        <mxCell id="GmxHw5m7cE2T_aC2auER-23" value="Validacao " style="swimlane;fontStyle=1;align=center;verticalAlign=top;childLayout=stackLayout;horizontal=1;startSize=26;horizontalStack=0;resizeParent=1;resizeParentMax=0;resizeLast=0;collapsible=1;marginBottom=0;" parent="WIyWlLk6GJQsqaUBKTNV-1" vertex="1">
          <mxGeometry x="630" y="260" width="190" height="220" as="geometry" />
        </mxCell>
        <mxCell id="GmxHw5m7cE2T_aC2auER-24" value="- conta_foco: bolean&#xa;- recurso_internacional: bolean&#xa;- viagemAcima10%: bolean&#xa;- tcv: int&#xa;- service_line: sting&#xa;- start_date: date&#xa;- end_date: date&#xa;- extension: bolean&#xa;- growth: string&#xa;&#xa;&#xa;&#xa;&#xa;" style="text;strokeColor=none;fillColor=none;align=left;verticalAlign=top;spacingLeft=4;spacingRight=4;overflow=hidden;rotatable=0;points=[[0,0.5],[1,0.5]];portConstraint=eastwest;" parent="GmxHw5m7cE2T_aC2auER-23" vertex="1">
          <mxGeometry y="26" width="190" height="144" as="geometry" />
        </mxCell>
        <mxCell id="GmxHw5m7cE2T_aC2auER-25" value="" style="line;strokeWidth=1;fillColor=none;align=left;verticalAlign=middle;spacingTop=-1;spacingLeft=3;spacingRight=3;rotatable=0;labelPosition=right;points=[];portConstraint=eastwest;" parent="GmxHw5m7cE2T_aC2auER-23" vertex="1">
          <mxGeometry y="170" width="190" height="8" as="geometry" />
        </mxCell>
        <mxCell id="GmxHw5m7cE2T_aC2auER-26" value="- aprovação_ferramenta: bolean&#xa;- call: bolean" style="text;strokeColor=none;fillColor=none;align=left;verticalAlign=top;spacingLeft=4;spacingRight=4;overflow=hidden;rotatable=0;points=[[0,0.5],[1,0.5]];portConstraint=eastwest;" parent="GmxHw5m7cE2T_aC2auER-23" vertex="1">
          <mxGeometry y="178" width="190" height="42" as="geometry" />
        </mxCell>
        <mxCell id="GmxHw5m7cE2T_aC2auER-30" value="Aprovacao" style="swimlane;fontStyle=1;align=center;verticalAlign=top;childLayout=stackLayout;horizontal=1;startSize=26;horizontalStack=0;resizeParent=1;resizeParentMax=0;resizeLast=0;collapsible=1;marginBottom=0;" parent="WIyWlLk6GJQsqaUBKTNV-1" vertex="1">
          <mxGeometry x="310" y="250" width="190" height="180" as="geometry" />
        </mxCell>
        <mxCell id="GmxHw5m7cE2T_aC2auER-31" value="- id: string&#xa;- matricula: int&#xa;- chairman_LA: string&#xa;- market_leader: string&#xa;- leader_setor: string&#xa;- leader_largedeals: string" style="text;strokeColor=none;fillColor=none;align=left;verticalAlign=top;spacingLeft=4;spacingRight=4;overflow=hidden;rotatable=0;points=[[0,0.5],[1,0.5]];portConstraint=eastwest;" parent="GmxHw5m7cE2T_aC2auER-30" vertex="1">
          <mxGeometry y="26" width="190" height="104" as="geometry" />
        </mxCell>
        <mxCell id="GmxHw5m7cE2T_aC2auER-32" value="" style="line;strokeWidth=1;fillColor=none;align=left;verticalAlign=middle;spacingTop=-1;spacingLeft=3;spacingRight=3;rotatable=0;labelPosition=right;points=[];portConstraint=eastwest;" parent="GmxHw5m7cE2T_aC2auER-30" vertex="1">
          <mxGeometry y="130" width="190" height="8" as="geometry" />
        </mxCell>
        <mxCell id="GmxHw5m7cE2T_aC2auER-33" value="- aprovado: string&#xa;- chat: string" style="text;strokeColor=none;fillColor=none;align=left;verticalAlign=top;spacingLeft=4;spacingRight=4;overflow=hidden;rotatable=0;points=[[0,0.5],[1,0.5]];portConstraint=eastwest;" parent="GmxHw5m7cE2T_aC2auER-30" vertex="1">
          <mxGeometry y="138" width="190" height="42" as="geometry" />
        </mxCell>
        <mxCell id="GmxHw5m7cE2T_aC2auER-34" style="edgeStyle=orthogonalEdgeStyle;rounded=0;orthogonalLoop=1;jettySize=auto;html=1;entryX=-0.005;entryY=0.894;entryDx=0;entryDy=0;entryPerimeter=0;" parent="WIyWlLk6GJQsqaUBKTNV-1" source="GmxHw5m7cE2T_aC2auER-31" target="GmxHw5m7cE2T_aC2auER-10" edge="1">
          <mxGeometry relative="1" as="geometry" />
        </mxCell>
        <mxCell id="GmxHw5m7cE2T_aC2auER-35" value="Aprovar" style="edgeLabel;html=1;align=center;verticalAlign=middle;resizable=0;points=[];" parent="GmxHw5m7cE2T_aC2auER-34" vertex="1" connectable="0">
          <mxGeometry x="0.0694" y="1" relative="1" as="geometry">
            <mxPoint x="1" as="offset" />
          </mxGeometry>
        </mxCell>
      </root>
    </mxGraphModel>
  </diagram>
</mxfile>
